<svg width="12" height="20" viewBox="0 0 12 20" fill="none" xmlns="http://www.w3.org/2000/svg">
<path d="M3.94715 10.0041L11.4309 2.52033C11.6382 2.31301 11.752 2.04065 11.752 1.74797C11.752 1.45528 11.6382 1.17886 11.4309 0.97561L10.7764 0.321138C10.5691 0.113821 10.2927 0 10 0C9.70732 0 9.43089 0.113821 9.22764 0.321138L0.317073 9.22764C0.113821 9.43496 0 9.71138 0 10.0041C0 10.2967 0.113821 10.5732 0.317073 10.7805L9.21545 19.6789C9.42276 19.8862 9.69512 20 9.98781 20C10.2805 20 10.5569 19.8862 10.7602 19.6789L11.4228 19.0244C11.8496 18.5976 11.8496 17.9024 11.4228 17.4756L3.94715 10.0041Z" fill="#E2181F"/>
</svg>
