<svg width="21" height="20" viewBox="0 0 21 20" fill="none" xmlns="http://www.w3.org/2000/svg">
<path d="M18.4375 1.5625H17.5V0H15.9375V1.5625H5.625V0H4.0625V1.5625H3.125C1.83203 1.5625 0.78125 2.61328 0.78125 3.90625V17.6562C0.78125 18.9492 1.83203 20 3.125 20H18.4375C19.7305 20 20.7812 18.9492 20.7812 17.6562V3.90625C20.7812 2.61328 19.7305 1.5625 18.4375 1.5625ZM19.2188 17.6562C19.2188 18.0859 18.8672 18.4375 18.4375 18.4375H3.125C2.69531 18.4375 2.34375 18.0859 2.34375 17.6562V7.34375H19.2188V17.6562ZM19.2188 5.78125H2.34375V3.90625C2.34375 3.47656 2.69531 3.125 3.125 3.125H4.0625V4.6875H5.625V3.125H15.9375V4.6875H17.5V3.125H18.4375C18.8672 3.125 19.2188 3.47656 19.2188 3.90625V5.78125Z" fill="#A7A7A7"/>
</svg>
