<svg width="20" height="12" viewBox="0 0 20 12" fill="none" xmlns="http://www.w3.org/2000/svg">
<path d="M10.0041 7.80382L2.52033 0.320081C2.31301 0.112764 2.04065 -0.00105665 1.74797 -0.00105665C1.45528 -0.00105665 1.17886 0.112764 0.97561 0.320081L0.321138 0.974553C0.113821 1.18187 1.22739e-07 1.45829 1.19249e-07 1.75098C1.15759e-07 2.04366 0.113821 2.32008 0.321138 2.52333L9.22764 11.4339C9.43496 11.6372 9.71138 11.751 10.0041 11.751C10.2967 11.751 10.5732 11.6372 10.7805 11.4339L19.6789 2.53553C19.8862 2.32821 20 2.05585 20 1.76317C20 1.47049 19.8862 1.19407 19.6789 0.990813L19.0244 0.328212C18.5976 -0.0986173 17.9024 -0.0986173 17.4756 0.328212L10.0041 7.80382Z" fill="#A7A7A7"/>
</svg>
