<svg width="17" height="20" viewBox="0 0 17 20" fill="none" xmlns="http://www.w3.org/2000/svg">
<path d="M11.4927 13.6037H10.5934V12.6443C11.6469 11.9761 12.3759 10.9005 12.6064 9.67439C13.2212 9.49653 13.5913 8.5834 13.5913 7.90769C13.6388 7.40004 13.3251 6.9281 12.8387 6.77542C13.6462 5.93694 13.824 4.67483 13.2799 3.64575C12.7358 2.61668 11.5924 2.05325 10.4449 2.24853C9.03862 0.730685 6.69122 0.576544 5.09843 1.89721C3.50564 3.21802 3.22254 5.55342 4.45391 7.21633C4.14328 7.44776 3.97143 7.82103 3.99793 8.20748C3.99793 8.90924 4.39594 9.86864 5.05408 9.99248C5.34289 11.0901 6.0366 12.0376 6.99585 12.6443V13.6037H6.09647C4.74419 13.6021 3.44694 14.1385 2.49077 15.0947C1.53474 16.0508 0.998248 17.3481 1 18.7002C1 18.8658 1.13409 19 1.2998 19H16.2894C16.455 19 16.5892 18.8658 16.5892 18.7002C16.586 15.8869 14.3061 13.607 11.4927 13.6037ZM7.59543 14.1035V12.9695C7.62237 12.981 7.65076 12.9883 7.67814 12.9993C7.79466 13.0479 7.91337 13.0911 8.03399 13.1298C8.07923 13.1441 8.12387 13.1598 8.17013 13.1718C8.32969 13.2182 8.49173 13.2561 8.65539 13.2851L8.74541 13.2997C8.77791 13.3054 8.81114 13.3054 8.84364 13.2997L8.93366 13.2851C9.09747 13.2567 9.25951 13.2195 9.41936 13.1735C9.46518 13.1603 9.50924 13.1457 9.55564 13.1312C9.67685 13.0929 9.796 13.0494 9.91311 13.0005C9.93946 12.9898 9.96757 12.9826 9.99406 12.9706V14.1026L9.24151 15.1027H8.34491L7.59543 14.1035ZM12.6919 8.87631V7.35422C12.8971 7.43224 12.9917 7.61156 12.9917 7.90769C12.9867 8.25272 12.8826 8.58881 12.6919 8.87631ZM7.59543 1.61206C8.56214 1.61162 9.4804 2.03554 10.1074 2.7717C10.1801 2.8569 10.2943 2.89452 10.4035 2.86905C11.2925 2.65533 12.2176 3.04163 12.6904 3.82434C13.1632 4.6069 13.0748 5.60553 12.472 6.29309C12.464 6.27918 12.4523 6.26308 12.4439 6.25049C12.4044 6.18476 12.3602 6.11758 12.3112 6.04936C12.2961 6.02828 12.2811 6.00764 12.2661 5.98598C12.2008 5.89946 12.1285 5.8109 12.0483 5.72044C12.0317 5.70185 12.0131 5.68267 11.9963 5.66408C11.9272 5.58855 11.853 5.51155 11.7736 5.43324C11.7471 5.40718 11.7205 5.38112 11.693 5.35463C11.5921 5.25787 11.4864 5.16008 11.3701 5.05996C11.0798 4.81052 10.776 4.57719 10.4601 4.36083C10.3539 4.28984 10.2144 4.29379 10.1125 4.37108L8.48368 5.60685C7.81398 6.11611 6.9976 6.39541 6.15634 6.40273H6.08593C6.02562 6.40346 5.9656 6.40873 5.90603 6.41839C5.89739 6.41839 5.88919 6.42191 5.88056 6.42366C5.82815 6.43303 5.77633 6.44577 5.72554 6.46187L5.71061 6.46714C5.65615 6.48529 5.60316 6.50739 5.55193 6.53345H5.54929C5.33982 6.63884 5.16635 6.80411 5.051 7.00832C4.23858 6.02345 4.0676 4.65814 4.612 3.50347C5.15655 2.34866 6.31868 1.61191 7.59543 1.61206ZM4.59751 8.20748C4.56721 7.9942 4.66968 7.78385 4.85617 7.67597C4.86993 7.68943 4.8831 7.70349 4.8973 7.71666V8.84908C4.8973 8.96575 4.90169 9.08183 4.91077 9.19747C4.7114 8.90529 4.60249 8.561 4.59751 8.20748ZM5.57989 9.63721C5.52426 9.37825 5.49645 9.11403 5.49689 8.84908V7.59648C5.49689 7.59326 5.49689 7.59019 5.49689 7.58697C5.49835 7.53193 5.50786 7.47762 5.52499 7.42536C5.52807 7.41541 5.53099 7.40531 5.53465 7.39535C5.55324 7.3428 5.5793 7.29303 5.61194 7.2478C5.61531 7.24341 5.61912 7.23945 5.62248 7.23521C5.65674 7.19071 5.69714 7.15118 5.74237 7.11781L5.74588 7.11474C5.79214 7.08239 5.84264 7.05677 5.89578 7.03832C5.90427 7.03525 5.91261 7.03291 5.9214 7.03027C5.97585 7.01285 6.03265 7.00348 6.08988 7.00231H6.1578C7.13594 6.99338 8.0845 6.66724 8.86135 6.07293L10.3004 4.98179C10.4604 5.09743 10.7127 5.28656 10.9791 5.51536C11.0568 5.58211 11.1309 5.64813 11.201 5.71356C11.5876 6.02111 11.8885 6.42308 12.0749 6.88067C12.0859 6.92224 12.0917 6.96513 12.0923 7.00832V8.84908C12.0929 9.02167 12.0807 9.19396 12.0557 9.36464C11.8945 10.5628 11.1881 11.6188 10.1421 12.2247C9.73892 12.4601 9.29596 12.6195 8.83529 12.6949L8.7946 12.7001L8.75493 12.6938C8.29397 12.6158 7.85058 12.4564 7.44554 12.2229C6.48365 11.6662 5.80488 10.7256 5.57989 9.63721ZM2.9144 15.5189C3.75756 14.6741 4.90286 14.2005 6.09647 14.2033H6.99585C6.99585 14.2682 7.01678 14.3313 7.05572 14.3832L7.87663 15.4774L7.34497 18.4004H1.6094C1.67907 17.3131 2.14311 16.2886 2.9144 15.5189ZM7.95509 18.4004L8.44562 15.7023H9.14475L9.63396 18.4004H7.95509ZM10.2447 18.4004L9.71315 15.4774L10.4878 14.4431L10.533 14.3832C10.5721 14.3314 10.5932 14.2682 10.5934 14.2033H11.4927C13.8587 14.2063 15.8189 16.0398 15.9797 18.4004H10.2447Z" fill="black" stroke="black" stroke-width="0.5"/>
</svg>
